<?xml version="1.0" encoding="utf-8"?>
<!-- Generator: Adobe Illustrator 21.0.0, SVG Export Plug-In . SVG Version: 6.00 Build 0)  -->
<svg version="1.1" id="Layer_1" xmlns="http://www.w3.org/2000/svg" xmlns:xlink="http://www.w3.org/1999/xlink" x="0px" y="0px"
	 viewBox="0 0 254 60" style="enable-background:new 0 0 254 60;" xml:space="preserve">
<g>
	<g>
		<path d="M149.2,12.4c0.8,0,1.2,0.4,1.2,1.2v32.9c0,0.8-0.4,1.2-1.2,1.2c-0.8,0-1.2-0.4-1.2-1.2c0-8.5-2.9-15.8-8.9-22
			c-5.9-6.1-13.1-9.3-21.5-9.6v31.6c0,0.8-0.4,1.2-1.2,1.2c-0.8,0-1.2-0.4-1.2-1.2V13.6c0-0.8,0.4-1.2,1.2-1.2c7.1,0,13.5,2,19.3,6
			c5.7,3.9,9.8,9.1,12.3,15.5V13.6C147.9,12.8,148.3,12.4,149.2,12.4z"/>
		<path d="M189.3,12.4c0.8,0,1.2,0.4,1.2,1.2V20c0,7.6-2.7,14.2-8.1,19.6c-5.4,5.4-12,8.1-19.6,8.1c-0.8,0-1.2-0.4-1.2-1.2V13.6
			c0-0.8,0.4-1.2,1.2-1.2c0.8,0,1.2,0.4,1.2,1.2v31.6c6.7-0.3,12.4-2.9,17-7.8c4.7-4.9,7-10.7,7-17.4v-6.4
			C188.1,12.8,188.5,12.4,189.3,12.4z"/>
		<path d="M223.6,17.5c3.5-3.5,7.6-5.2,12.4-5.2c4.9,0,9,1.7,12.5,5.2c3.4,3.4,5.2,7.6,5.2,12.4c0,4.9-1.7,9-5.2,12.5
			c-3.5,3.5-7.6,5.2-12.5,5.2c-4.8,0-9-1.7-12.4-5.2c-3.4-3.4-5.2-7.6-5.2-12.5C218.4,25.1,220.1,21,223.6,17.5z M225.3,40.7
			c3,3,6.5,4.5,10.7,4.5c4.2,0,7.8-1.5,10.8-4.5c3-3,4.5-6.6,4.5-10.8c0-4.2-1.5-7.7-4.5-10.7c-3-3-6.6-4.5-10.8-4.5
			c-4.2,0-7.7,1.5-10.7,4.5c-3,3-4.5,6.5-4.5,10.7C220.8,34.2,222.3,37.8,225.3,40.7z"/>
		<path d="M102.5,46.5c0,0.7-0.5,1.2-1.2,1.2l0,0c-0.7,0-1.2-0.5-1.2-1.2V13.5c0-0.7,0.5-1.2,1.2-1.2l0,0c0.7,0,1.2,0.5,1.2,1.2
			V46.5z"/>
		<path d="M205.7,46.5c0,0.7-0.5,1.2-1.2,1.2l0,0c-0.7,0-1.2-0.5-1.2-1.2V13.5c0-0.7,0.5-1.2,1.2-1.2l0,0c0.7,0,1.2,0.5,1.2,1.2
			V46.5z"/>
	</g>
</g>
<g>
	<path d="M40.8,34.5c0,19.4,6.4,18.2,6.4,20.1c0,1.9-29.2,3.4-29.2-20.1c0-12.2,0-16,0-16c0-3.7,3-6.7,6.7-6.7h9.4
		c3.7,0,6.7,3,6.7,6.7C40.8,18.4,40.8,22.3,40.8,34.5z"/>
	<path d="M16,37.5c0,10.7,8.9,13.3,8.9,14.6c0,1.3-24.6,1.6-24.6-14.6c0-8.4,0-11,0-11C0.3,24,2.4,22,4.9,22h6.5
		c2.5,0,4.6,2.1,4.6,4.6C16,26.5,16,29.2,16,37.5z"/>
	<path d="M53.9,31.1c0,26.6-7.6,25-7.6,27.6c0,2.6,34.4,4.7,34.4-27.6c0-16.7,0-22,0-22c0-5-3.5-9.1-7.9-9.1H61.8
		c-4.3,0-7.9,4.1-7.9,9.1C53.9,9.1,53.9,14.5,53.9,31.1z"/>
</g>
</svg>
