<?xml version="1.0" encoding="utf-8"?>
<!-- Generator: Adobe Illustrator 21.0.0, SVG Export Plug-In . SVG Version: 6.00 Build 0)  -->
<svg version="1.1" id="Layer_1" xmlns="http://www.w3.org/2000/svg" xmlns:xlink="http://www.w3.org/1999/xlink" x="0px" y="0px"
	 viewBox="0 0 150 150" style="enable-background:new 0 0 150 150;" xml:space="preserve">
<style type="text/css">
	.st0{fill:#3E3A39;}
</style>
<g>
	<path class="st0" d="M123.1,0H26.9C11.7,0-0.6,12.3-0.6,27.5v95.1c0,15.2,12.3,27.5,27.5,27.5h96.2c15.2,0,27.5-12.3,27.5-27.5
		V27.5C150.6,12.3,138.3,0,123.1,0z M138,80.8c0,11.2-9.1,20.3-20.3,20.3H87.5l-10.3,16.8c0,0-0.1,0.2-0.4,0.5c-0.6,1-1.7,1.7-3,1.7
		c-1.3,0-2.4-0.7-3-1.7c-0.2-0.3-0.3-0.5-0.3-0.5l-10.3-16.8H30c-11.2,0-20.2-9.1-20.2-20.3V32.6c0-11.2,9.1-20.3,20.2-20.3h87.7
		c11.2,0,20.3,9.1,20.3,20.3V80.8z"/>
	<path class="st0" d="M38.2,47.6c0,0-3.5,0-6.7,3.1V38.3h-7.8V71h7.9v-2.6c0,0,1.9,3.4,6.6,3.4c0,0,11.1-0.4,11.1-12.2
		C49.3,59.6,48.9,47.6,38.2,47.6z M36.5,64.9c-2.8,0-5-2.3-5-5c0-2.8,2.3-5,5-5c2.8,0,5,2.2,5,5C41.6,62.6,39.3,64.9,36.5,64.9z"/>
	<path class="st0" d="M51.8,37.5v7.6c0,0,3.6-0.2,3.6,6.5V71H63V49.8C63,49.8,63.3,37.5,51.8,37.5z"/>
	<path class="st0" d="M81.5,47.7c0,0-13,0-13,12.1c0,0-0.4,12,13,12c0,0,13.3,0,13.3-12C94.7,59.9,95.2,47.7,81.5,47.7z M81.5,64.9
		c-2.8,0-5-2.3-5-5c0-2.8,2.3-5,5-5c2.8,0,5,2.2,5,5C86.5,62.6,84.3,64.9,81.5,64.9z"/>
	<path class="st0" d="M116.4,50.7c0,0-2.3-3-6.6-3c0,0-11.1-0.5-11.1,12c0,0-0.1,11.6,10.8,11.6c0,0,4.4,0.2,6.9-3v1.8
		c0,0,0.6,5.7-5,5.7h-1.9v6.9h3.1c0,0,11.5,0.1,11.5-12.3V48.5h-7.6V50.7z M111.7,64.9c-2.8,0-5-2.3-5-5c0-2.8,2.3-5,5-5
		c2.8,0,5,2.2,5,5C116.7,62.6,114.5,64.9,111.7,64.9z"/>
</g>
</svg>
