<?xml version="1.0" encoding="utf-8"?>
<!-- Generator: Adobe Illustrator 21.0.0, SVG Export Plug-In . SVG Version: 6.00 Build 0)  -->
<svg version="1.1" id="Layer_1" xmlns="http://www.w3.org/2000/svg" xmlns:xlink="http://www.w3.org/1999/xlink" x="0px" y="0px"
	 viewBox="0 0 150 150" style="enable-background:new 0 0 150 150;" xml:space="preserve">
<style type="text/css">
	.st0{fill:#3E3A39;}
</style>
<path class="st0" d="M138,0H12C5.4,0,0,5.4,0,12v126c0,6.6,5.4,12,12,12h126c6.6,0,12-5.4,12-12V12C150,5.4,144.6,0,138,0z
	 M104.5,76.6c-0.6,11.6-3.8,32.9-25.9,49.9c-0.5,0.4-1.1,0.4-1.7,0.2c-0.5-0.1-1.1-0.8-1.1-0.8L63,111.6c-0.4-0.5-0.7-1-0.7-1.6
	c0-0.8,0.4-1.4,0.9-1.9c0.1,0,6.9-5.7,10.1-10.8c2.8-4.5,4.8-9.6,4.9-14.3H59.9c-2.7,0-4.8-2.2-4.8-4.8V38.7c0-2.7,2.2-4.8,4.8-4.8
	h39.8c2.7,0,4.8,2.2,4.8,4.8V76.6z"/>
</svg>
